#N canvas 65 163 517 438 10;
#X declare -lib mrpeach;
#X obj 43 14 import mrpeach;
#X obj 42 38 dumpOSC 12000;
#X obj 42 66 OSCroute /test;
#X obj 43 167 print "test" \$1;
#X obj 160 122 unpack f f;
#X obj 149 91 print "recieve_something_else";
#X floatatom 161 183 5 0 0 0 - - -;
#X floatatom 217 149 5 0 0 0 - - -;
#X obj 61 405 dac~;
#X obj 59 280 osc~;
#X floatatom 132 253 5 0 0 0 - - -;
#X obj 132 278 dbtorms;
#X floatatom 132 305 5 0 0 0 - - -;
#X obj 60 333 *~ 0;
#X msg 405 227 \; pd dsp 1;
#X msg 404 269 \; pd dsp 0;
#X text 465 234 ON;
#X text 465 276 OFF;
#X text 100 331 <-- Multiply the sine wave by the gain \, reducing
its amplitude.;
#X text 102 385 <-- Signal out. We're sending to both channels now.
;
#X text 198 208 <-- convert val to a frequecy;
#X text 197 180 <-- location variable recieved from Processing;
#X text 218 194 (largest possible value is 800);
#X obj 161 209 *~ 10;
#X text 220 221 (ranges from 0 to 8000);
#X text 167 252 <-- set to 80;
#X obj 60 368 freeverb~;
#X connect 1 0 2 0;
#X connect 2 0 3 0;
#X connect 2 0 4 0;
#X connect 2 1 5 0;
#X connect 4 0 6 0;
#X connect 4 1 7 0;
#X connect 6 0 23 0;
#X connect 9 0 13 0;
#X connect 10 0 11 0;
#X connect 11 0 12 0;
#X connect 11 0 13 1;
#X connect 13 0 26 0;
#X connect 23 0 9 0;
#X connect 26 0 8 0;
#X connect 26 0 8 1;
